<svg version="1.1" xmlns="http://www.w3.org/2000/svg" xmlns:xlink="http://www.w3.org/1999/xlink" x="0px" y="0px" width="100%" height="100%"
	 viewBox="0 0 348 460" preserveAspectRatio="none" xml:space="preserve">
<g>
	<path fill="#B5CDE3" d="M339.3,57.1c0.1-0.6,0.2-1.2,0.2-1.8C339.5,35,262,5.4,175.3,5.4C88.6,5.4,6.7,33.6,6.7,53.9
		c0,0.6,0.1,1.2,0.2,1.8l47.8,334.4h0.1c0,0.5-0.1,1-0.1,1.5c0,34.8,54,63,120.6,63c66.6,0,120.6-28.2,120.6-63c0-0.5-0.1-1-0.1-1.5
		h0.1L339.3,57.1z"/>
	<path fill="#FBDE34" d="M59.4,196.6l25.8,190.9c0,0,7.8,13.9,12.1,16.2c12.9,6.7,38.1,18.6,78.2,17.9c53.5-0.9,85.3-20.3,85.3-20.3
		l8.6-13.4l25.1-199.6L59.4,196.6z"/>
	<path fill="#FFFFFF" d="M48.3,102.5c3.7-6.9,10.1-16.4,17.5-20.9c7.4-4.5,53.6-19.3,113.5-18.8c59.9,0.5,106.9,17.6,113.8,25.2
		c6.9,7.6,12.5,22.3,12.5,22.3l-11.1,77.9c0,0-10.6,7.3-22.8,11.3c-12.2,4-46.4,0.8-56.5,5.2c-10.1,4.3-38.7,19.8-38.7,19.8
		s-25.9,20.7-53.2,14.7c-17.3-3.7-35.1-34.7-47.3-35.6c-9.5-0.7-15.6-3.9-15.6-3.9S44.6,109.4,48.3,102.5z"/>
	<path fill="#FFFFFF" d="M127.8,269.1c0,11-11.3,19.9-25.2,19.9c-13.9,0-25.2-8.9-25.2-19.9c0-11,11.3-19.9,25.2-19.9
		C116.5,249.2,127.8,258.1,127.8,269.1z"/>
	<path fill="#FFFFFF" d="M122.4,294.8c0,5.6-5.6,10.2-12.6,10.2c-7,0-12.6-4.6-12.6-10.2c0-5.6,5.6-10.2,12.6-10.2
		C116.8,284.6,122.4,289.1,122.4,294.8z"/>
</g>
<g>
	<path fill="#343433" d="M91.5,380.6l19-11.5c3.7,6.5,7,12,15,12c7.7,0,12.5-3,12.5-14.6v-79.2h23.3v79.5
		c0,24.1-14.1,35.1-34.8,35.1C107.8,401.9,96.9,392.2,91.5,380.6"/>
	<path fill="#343433" d="M173.8,378.1l19-11c5,8.2,11.5,14.1,23,14.1c9.6,0,15.8-4.8,15.8-11.5c0-8-6.3-10.8-17-15.5l-5.8-2.5
		c-16.8-7.1-27.9-16.1-27.9-35.1c0-17.5,13.3-30.8,34.1-30.8c14.8,0,25.5,5.2,33.1,18.6l-18.1,11.6c-4-7.1-8.3-10-15-10
		c-6.8,0-11.1,4.3-11.1,10c0,7,4.3,9.8,14.3,14.1l5.8,2.5c19.8,8.5,30.9,17.1,30.9,36.6c0,21-16.5,32.4-38.6,32.4
		C194.6,401.9,180.6,391.5,173.8,378.1"/>
</g>
</svg>
