<?xml version="1.0" encoding="utf-8"?>
<svg version="1.1" xmlns="http://www.w3.org/2000/svg" xmlns:xlink="http://www.w3.org/1999/xlink"
	 x="0px" y="0px" width="100%" height="100%" viewBox="0 0 226 64" xml:space="preserve" preserveAspectRatio="none">
	<!-- <style type="text/css">
		.fill-brand {
			fill: #1680C3;
		}
		.fill-gold {
			fill: #929497;
		}
	 </style> -->
<g fill="#FFFFFF">
	<path class="fill-brand" d="M119.872,27.58c-10.866-9.951-30.122-10.796-30.314-10.802l-0.863-0.029l-0.641-0.58
		C87.931,16.059,75.39,4.718,57.984,4.718c-20.749,0-34.848,15.537-34.987,15.692l-0.793,0.875L0.182,19.168l0.69-4.615
		l19.461,1.819C23.841,12.859,37.846,0,57.984,0c17.12,0,29.604,9.645,32.575,12.104c4.073,0.256,21.455,1.915,32.374,11.913
		L119.872,27.58z"/>
	<path d="M13.674,32.748c-0.526-1.083-1.764-3.219-4.826-3.219c-4.146,0-5.63,3.466-5.63,6.063c0,2.97,1.888,6.096,5.568,6.096
		c2.414,0,4.053-1.393,4.857-3.156h3.589c-1.3,3.806-4.641,6.095-8.447,6.095c-5.63,0-8.786-4.61-8.786-9.034
		c0-4.639,3.402-9.001,8.818-9.001c4.856,0,7.765,3.619,8.415,6.157H13.674z"/>
	<path class="fill-brand" d="M33.276,44.192v-2.659h-0.062c-1.237,2.104-3.496,3.094-5.816,3.094c-5.784,0-9.096-4.425-9.096-8.941
		c0-4.176,2.939-9.096,9.096-9.096c2.383,0,4.58,0.99,5.816,2.878h0.062v-2.414h3.218v17.138H33.276z M27.397,29.53
		c-3.96,0-5.878,3.435-5.878,6.125c0,3.094,2.444,6.034,5.847,6.034c3.372,0,5.971-2.755,5.971-6.034
		C33.337,32.005,30.708,29.53,27.397,29.53"/>
	<path d="M75.915,44.192v-2.659h-0.063c-1.237,2.104-3.495,3.094-5.815,3.094c-5.786,0-9.096-4.425-9.096-8.941
		c0-4.176,2.938-9.096,9.096-9.096c2.383,0,4.579,0.99,5.815,2.878h0.063v-2.414h3.218v17.138H75.915z M70.037,29.53
		c-3.96,0-5.879,3.435-5.879,6.125c0,3.094,2.445,6.034,5.848,6.034c3.372,0,5.971-2.755,5.971-6.034
		C75.977,32.005,73.347,29.53,70.037,29.53"/>
	<rect x="81.199" y="21.299" width="3.217" height="22.894"/>
	<path class="fill-brand" d="M89.107,37.016c0.804,3.311,3.465,4.672,5.63,4.672c2.383,0,4.116-1.393,4.888-2.878h3.218
		c-1.64,4.425-5.568,5.816-8.23,5.816c-4.856,0-8.725-4.177-8.725-9.034c0-5.133,3.961-9.002,8.787-9.002
		c4.641,0,8.694,3.774,8.725,8.787c0,0.555-0.062,1.422-0.093,1.639H89.107z M100.183,34.541c-0.153-2.506-2.443-5.011-5.538-5.011
		c-3.094,0-5.383,2.505-5.538,5.011H100.183z"/>
	<path d="M134.959,32.748c-0.526-1.083-1.764-3.219-4.827-3.219c-4.146,0-5.629,3.466-5.629,6.063c0,2.97,1.886,6.096,5.567,6.096
		c2.412,0,4.054-1.393,4.858-3.156h3.587c-1.299,3.806-4.639,6.095-8.445,6.095c-5.631,0-8.787-4.61-8.787-9.034
		c0-4.639,3.404-9.001,8.818-9.001c4.857,0,7.764,3.619,8.414,6.157H134.959z"/>
	<path d="M148.738,44.627c-5.755,0-9.251-4.797-9.251-9.127c0-4.671,3.929-8.91,9.251-8.91c5.199,0,9.25,4.083,9.25,8.973
		C157.988,39.738,154.557,44.627,148.738,44.627 M148.738,29.53c-3.621,0-6.034,3-6.034,6.063c0,3.093,2.446,6.096,6.034,6.096
		c3.465,0,6.033-2.88,6.033-6.126C154.771,32.53,152.357,29.53,148.738,29.53"/>
	<path d="M182.307,44.193v-9.529c0-1.453-0.186-5.134-4.049-5.134c-4.117,0-4.055,3.681-4.086,5.103v9.561h-3.215v-9.529
		c0.029-1.422-0.031-2.381-0.713-3.526c-0.803-1.237-2.012-1.608-3.188-1.608c-4.238,0-4.238,3.835-4.238,5.103v9.561H159.6V27.055
		h2.971v1.855h0.062c0.619-0.712,1.732-2.32,4.92-2.32c2.072,0,4.453,0.99,5.32,2.878c0.557-0.867,1.826-2.878,5.662-2.878
		c2.875,0,4.918,1.176,6.033,3.095c0.619,1.114,0.959,2.505,0.959,4.177v10.332H182.307z"/>
	<path d="M205.824,44.192v-2.659h-0.061c-1.238,2.104-3.496,3.094-5.816,3.094c-5.785,0-9.096-4.425-9.096-8.941
		c0-4.176,2.938-9.096,9.096-9.096c2.383,0,4.578,0.99,5.816,2.878h0.061v-2.414h3.221v17.138H205.824z M199.947,29.53
		c-3.961,0-5.879,3.435-5.879,6.125c0,3.094,2.445,6.034,5.848,6.034c3.373,0,5.971-2.755,5.971-6.034
		C205.887,32.005,203.258,29.53,199.947,29.53"/>
	<path d="M214.027,27.054v9.282c0,4.239,1.887,5.352,4.27,5.352c2.66,0,4.486-1.701,4.486-5.444v-9.189H226v17.139h-2.939v-1.856
		h-0.062c-0.865,1.486-2.875,2.289-5.043,2.289c-1.947,0-3.648-0.618-4.885-1.701c-1.426-1.237-2.26-3.156-2.26-6.589v-9.282
		H214.027z"/>
	<path d="M121.414,42.383c0,1.069-0.869,1.937-1.939,1.937s-1.938-0.867-1.938-1.937c0-1.071,0.867-1.939,1.938-1.939
		S121.414,41.312,121.414,42.383"/>
	<path d="M190.996,42.36c0,1.068-0.869,1.938-1.938,1.938c-1.072,0-1.939-0.869-1.939-1.938c0-1.072,0.867-1.94,1.939-1.94
		C190.127,40.42,190.996,41.288,190.996,42.36"/>
	<path d="M107.792,31.443c0.031-0.7,0.609-2.094,2.692-2.094c2.083,0,2.77,1.772,2.857,2.345l3.126,0.002
		c0-1.333-1.377-5.109-5.958-5.109c-4.583,0-5.644,3.232-5.71,4.737c-0.249,5.568,8.977,4.579,8.814,8.204
		c-0.029,0.673-0.674,2.285-3.338,2.285c-2.604,0-3.428-2.146-3.49-3.01h-3.082c0.166,1.681,1.377,5.822,6.617,5.822
		c5.212,0,6.228-3.7,6.29-5.076C116.87,33.737,107.673,34.096,107.792,31.443"/>
	<path d="M51.162,31.443c0.031-0.7,0.61-2.094,2.691-2.094c2.084,0,2.771,1.772,2.86,2.345l3.125,0.002
		c0-1.333-1.376-5.109-5.96-5.109c-4.582,0-5.642,3.232-5.709,4.737c-0.25,5.568,8.978,4.579,8.816,8.204
		c-0.03,0.673-0.676,2.285-3.339,2.285c-2.604,0-3.429-2.146-3.49-3.01h-3.083c0.167,1.681,1.377,5.822,6.616,5.822
		c5.214,0,6.231-3.7,6.292-5.076C60.241,33.737,51.043,34.096,51.162,31.443"/>
	<polygon class="fill-gold" points="76.209,62.304 74.78,62.304 74.78,51.746 76.354,51.746 81.538,59.737 81.538,51.746 
		82.974,51.746 82.974,62.304 81.509,62.304 76.209,54.073 	"/>
	<path class="fill-gold" d="M84.37,58.323c0-0.566,0.096-1.094,0.287-1.585c0.192-0.49,0.472-0.932,0.844-1.323
		c0.402-0.431,0.854-0.763,1.356-0.994c0.503-0.23,1.026-0.348,1.567-0.348c0.581,0,1.118,0.106,1.613,0.312
		c0.496,0.208,0.944,0.514,1.345,0.922c0.392,0.4,0.693,0.853,0.904,1.354c0.209,0.502,0.315,1.022,0.315,1.56
		c0,0.547-0.098,1.078-0.294,1.596c-0.196,0.517-0.471,0.969-0.823,1.355c-0.406,0.444-0.862,0.782-1.366,1.012
		c-0.506,0.229-1.043,0.344-1.614,0.344c-0.585,0-1.124-0.105-1.617-0.315c-0.494-0.21-0.935-0.521-1.327-0.932
		c-0.373-0.391-0.664-0.846-0.874-1.366C84.475,59.396,84.37,58.865,84.37,58.323 M85.858,58.309c0,0.797,0.251,1.463,0.758,1.994
		c0.504,0.532,1.135,0.799,1.889,0.799c0.739,0,1.359-0.269,1.859-0.803c0.501-0.533,0.75-1.202,0.75-2.006
		c0-0.806-0.25-1.474-0.75-2c-0.5-0.525-1.125-0.791-1.874-0.791c-0.745,0-1.37,0.268-1.874,0.802
		C86.109,56.837,85.858,57.506,85.858,58.309"/>
	<rect x="94.311" y="60.521" class="fill-gold" width="1.449" height="1.783"/>
	<polygon class="fill-gold" points="99.902,62.304 98.358,62.304 98.358,52.994 96.516,52.994 96.516,51.746 99.902,51.746 	"/>
	<path class="fill-brand" d="M175.314,53.391h-1.426v-1.645h1.424L175.314,53.391z M173.889,54.327h1.426v7.977h-1.426V54.327z"/>
	<polygon class="fill-brand" points="177.6,62.304 177.6,55.633 176.469,55.633 176.469,54.327 177.6,54.327 177.6,51.746 
		179.031,51.746 179.031,54.327 180.16,54.327 180.16,55.633 179.031,55.633 179.031,62.304 	"/>
	<path class="fill-gold" d="M108.565,61.326v0.978h-1.452V51.746h1.437v3.546c0.387-0.393,0.812-0.685,1.273-0.878
		c0.461-0.193,0.962-0.291,1.504-0.291c0.609,0,1.151,0.102,1.628,0.302c0.476,0.201,0.915,0.513,1.314,0.934
		c0.373,0.386,0.658,0.829,0.856,1.333c0.198,0.502,0.298,1.032,0.298,1.588c0,1.204-0.397,2.205-1.188,3.006
		c-0.792,0.8-1.792,1.2-2.995,1.2c-0.512,0-0.995-0.099-1.447-0.294S108.932,61.707,108.565,61.326 M108.506,58.367
		c0,0.734,0.27,1.376,0.808,1.926c0.541,0.549,1.162,0.822,1.869,0.822c0.768,0,1.419-0.271,1.951-0.816
		c0.531-0.544,0.796-1.222,0.796-2.033c0-0.765-0.269-1.414-0.804-1.947c-0.537-0.533-1.18-0.802-1.929-0.802
		c-0.734,0-1.367,0.278-1.896,0.835C108.771,56.905,108.506,57.579,108.506,58.367"/>
	<path class="fill-gold" d="M117.879,58.847c0.12,0.666,0.422,1.206,0.902,1.62c0.482,0.412,1.054,0.62,1.715,0.62
		c0.474,0,0.905-0.114,1.295-0.342c0.391-0.227,0.701-0.549,0.931-0.965h1.618c-0.367,0.886-0.881,1.562-1.539,2.029
		c-0.66,0.471-1.429,0.704-2.305,0.704c-0.589,0-1.127-0.105-1.617-0.312c-0.486-0.205-0.93-0.518-1.325-0.934
		c-0.375-0.392-0.663-0.848-0.876-1.368c-0.208-0.52-0.314-1.049-0.314-1.591c0-0.562,0.096-1.086,0.287-1.573
		c0.191-0.49,0.472-0.933,0.844-1.334c0.396-0.436,0.844-0.763,1.342-0.982c0.498-0.221,1.043-0.33,1.632-0.33
		c0.7,0,1.353,0.163,1.954,0.487c0.603,0.328,1.1,0.783,1.49,1.368c0.232,0.362,0.403,0.76,0.514,1.193
		c0.112,0.433,0.17,0.927,0.17,1.483v0.226H117.879z M123.021,57.555c-0.18-0.658-0.49-1.166-0.931-1.527
		c-0.438-0.36-0.966-0.54-1.579-0.54c-0.629,0-1.176,0.186-1.637,0.556c-0.46,0.37-0.777,0.875-0.951,1.512H123.021z"/>
	<path class="fill-gold" d="M133.643,59.585c-0.336,0.963-0.828,1.69-1.486,2.187c-0.658,0.495-1.458,0.741-2.398,0.741
		c-0.598,0-1.135-0.103-1.619-0.306c-0.483-0.205-0.921-0.515-1.312-0.926c-0.373-0.391-0.664-0.846-0.874-1.367
		c-0.21-0.519-0.314-1.05-0.314-1.591c0-0.556,0.094-1.077,0.286-1.562c0.189-0.487,0.473-0.929,0.844-1.331
		c0.41-0.438,0.872-0.773,1.385-1.002c0.512-0.225,1.062-0.339,1.646-0.339c0.914,0,1.707,0.253,2.38,0.758
		c0.669,0.504,1.159,1.215,1.464,2.129h-1.574c-0.25-0.49-0.574-0.855-0.973-1.096c-0.395-0.242-0.867-0.363-1.42-0.363
		c-0.711,0-1.314,0.269-1.811,0.806c-0.494,0.535-0.742,1.198-0.742,1.986c0,0.797,0.251,1.464,0.754,1.995s1.131,0.797,1.881,0.797
		c0.502,0,0.955-0.133,1.361-0.396c0.405-0.264,0.722-0.637,0.949-1.12H133.643z"/>
	<path class="fill-gold" d="M141.526,62.304v-0.978c-0.368,0.381-0.778,0.67-1.231,0.865c-0.449,0.195-0.934,0.294-1.446,0.294
		c-1.199,0-2.194-0.4-2.985-1.2c-0.795-0.801-1.189-1.802-1.189-3.006c0-0.561,0.098-1.094,0.295-1.596
		c0.199-0.503,0.482-0.944,0.851-1.325c0.401-0.422,0.838-0.732,1.313-0.934c0.479-0.201,1.02-0.302,1.63-0.302
		c0.546,0,1.048,0.098,1.508,0.291c0.459,0.193,0.878,0.485,1.256,0.878v-0.965h1.451v7.977H141.526z M136.16,58.266
		c0,0.808,0.266,1.484,0.801,2.03c0.533,0.547,1.188,0.819,1.963,0.819c0.705,0,1.326-0.273,1.865-0.823
		c0.539-0.549,0.81-1.19,0.81-1.925c0-0.783-0.266-1.454-0.802-2.012c-0.535-0.56-1.168-0.839-1.904-0.839
		c-0.754,0-1.398,0.265-1.932,0.799C136.426,56.845,136.16,57.496,136.16,58.266"/>
	<path class="fill-gold" d="M150.967,62.304h-1.377v-0.892c-0.285,0.362-0.605,0.634-0.963,0.808c-0.354,0.178-0.752,0.266-1.191,0.266
		c-1.006,0-1.785-0.312-2.334-0.936c-0.553-0.623-0.828-1.501-0.828-2.632v-4.591h1.438v4.176c0,0.861,0.152,1.507,0.455,1.938
		c0.305,0.431,0.762,0.646,1.371,0.646c0.377,0,0.713-0.087,1.008-0.264c0.293-0.178,0.529-0.431,0.703-0.758
		c0.107-0.203,0.184-0.445,0.227-0.726c0.049-0.282,0.072-0.731,0.072-1.356v-3.655h1.42V62.304z"/>
	<path class="fill-gold" d="M160.619,58.847c0.123,0.666,0.422,1.206,0.904,1.62c0.48,0.412,1.053,0.62,1.715,0.62
		c0.473,0,0.904-0.114,1.295-0.342c0.391-0.227,0.699-0.549,0.93-0.965h1.621c-0.371,0.886-0.883,1.562-1.541,2.029
		c-0.66,0.471-1.43,0.704-2.305,0.704c-0.59,0-1.129-0.105-1.619-0.312c-0.484-0.205-0.928-0.518-1.324-0.934
		c-0.373-0.392-0.664-0.848-0.873-1.368c-0.213-0.52-0.316-1.049-0.316-1.591c0-0.562,0.096-1.086,0.287-1.573
		c0.191-0.49,0.471-0.933,0.844-1.334c0.396-0.436,0.844-0.763,1.342-0.982c0.498-0.221,1.041-0.33,1.631-0.33
		c0.701,0,1.354,0.163,1.955,0.487c0.602,0.328,1.098,0.783,1.492,1.368c0.23,0.362,0.4,0.76,0.512,1.193
		c0.111,0.433,0.168,0.927,0.168,1.483v0.226H160.619z M165.764,57.555c-0.182-0.658-0.49-1.166-0.93-1.527
		c-0.439-0.36-0.967-0.54-1.582-0.54c-0.629,0-1.172,0.186-1.635,0.556c-0.461,0.37-0.779,0.875-0.951,1.512H165.764z"/>
	<path class="fill-gold" d="M154.023,56.314c0.016-0.331,0.289-0.985,1.266-0.985c0.98,0,1.303,0.834,1.346,1.104l1.469,0.001
		c0-0.627-0.648-2.403-2.801-2.403c-2.156,0-2.654,1.52-2.686,2.229c-0.119,2.618,4.223,2.154,4.145,3.858
		c-0.014,0.316-0.316,1.074-1.57,1.074c-1.225,0-1.611-1.01-1.643-1.415h-1.447c0.078,0.79,0.646,2.737,3.111,2.737
		c2.453,0,2.928-1.738,2.959-2.386C158.293,57.394,153.969,57.562,154.023,56.314"/>
	<path class="fill-gold" d="M3.503,59.229l-1.189,3.074H0.696l4.126-10.558H6.31l4.125,10.558H8.76l-1.161-3.074H3.503z M7.048,57.742
		l-1.487-4.01l-1.516,4.01H7.048z"/>
	<path class="fill-gold" d="M17.602,62.304h-1.378v-0.892c-0.285,0.362-0.605,0.634-0.96,0.808c-0.356,0.178-0.754,0.266-1.193,0.266
		c-1.006,0-1.784-0.312-2.335-0.936c-0.551-0.623-0.827-1.501-0.827-2.632v-4.591h1.436v4.176c0,0.861,0.153,1.507,0.457,1.938
		s0.761,0.646,1.371,0.646c0.376,0,0.712-0.087,1.007-0.264c0.294-0.178,0.53-0.431,0.703-0.758
		c0.106-0.203,0.183-0.445,0.228-0.726c0.046-0.282,0.069-0.731,0.069-1.356v-3.655h1.422V62.304z"/>
	<polygon class="fill-gold" points="26.85,62.304 26.85,55.633 25.719,55.633 25.719,54.327 26.85,54.327 26.85,51.746 28.278,51.746 
		28.278,54.327 29.41,54.327 29.41,55.633 28.278,55.633 28.278,62.304 	"/>
	<path class="fill-gold" d="M41.537,62.304v-0.978c-0.367,0.381-0.776,0.67-1.229,0.865c-0.452,0.195-0.935,0.294-1.446,0.294
		c-1.2,0-2.195-0.4-2.989-1.2c-0.792-0.801-1.188-1.802-1.188-3.006c0-0.561,0.099-1.094,0.297-1.596
		c0.198-0.503,0.481-0.944,0.848-1.325c0.401-0.422,0.84-0.732,1.316-0.934c0.477-0.201,1.019-0.302,1.628-0.302
		c0.546,0,1.049,0.098,1.508,0.291s0.878,0.485,1.254,0.878v-0.965h1.451v7.977H41.537z M36.172,58.266
		c0,0.808,0.267,1.484,0.801,2.03c0.534,0.547,1.188,0.819,1.962,0.819c0.704,0,1.327-0.273,1.866-0.823
		c0.539-0.549,0.809-1.19,0.809-1.925c0-0.783-0.268-1.454-0.801-2.012c-0.535-0.56-1.17-0.839-1.904-0.839
		c-0.754,0-1.398,0.265-1.932,0.799C36.439,56.845,36.172,57.496,36.172,58.266"/>
	<rect x="44.551" y="51.746" class="fill-gold" width="1.421" height="10.558"/>
	<path class="fill-gold" d="M48.967,53.391h-1.422v-1.646h1.422V53.391z M47.545,54.327h1.422v7.977h-1.422V54.327z"/>
	<path class="fill-gold" d="M57.099,62.304v-0.978c-0.368,0.381-0.778,0.67-1.23,0.865c-0.452,0.195-0.934,0.294-1.446,0.294
		c-1.199,0-2.195-0.4-2.988-1.2c-0.793-0.801-1.188-1.802-1.188-3.006c0-0.561,0.098-1.094,0.296-1.596
		c0.199-0.503,0.481-0.944,0.848-1.325c0.402-0.422,0.841-0.732,1.316-0.934c0.476-0.201,1.019-0.302,1.628-0.302
		c0.546,0,1.048,0.098,1.508,0.291c0.459,0.193,0.877,0.485,1.255,0.878v-0.965h1.449v7.977H57.099z M51.732,58.266
		c0,0.808,0.267,1.484,0.802,2.03c0.534,0.547,1.188,0.819,1.961,0.819c0.706,0,1.329-0.273,1.867-0.823
		c0.54-0.549,0.809-1.19,0.809-1.925c0-0.783-0.267-1.454-0.801-2.012c-0.535-0.56-1.169-0.839-1.905-0.839
		c-0.754,0-1.398,0.265-1.932,0.799C51.999,56.845,51.732,57.496,51.732,58.266"/>
	<path class="fill-gold" d="M60.084,51.746h1.473v1.574c0,0.603-0.114,1.058-0.341,1.362c-0.228,0.305-0.604,0.518-1.132,0.638v-0.949
		c0.184-0.048,0.315-0.127,0.392-0.24c0.077-0.111,0.116-0.272,0.116-0.485v-0.129h-0.508V51.746z"/>
	<path class="fill-gold" d="M63.887,56.314c0.014-0.331,0.287-0.985,1.266-0.985c0.98,0,1.303,0.834,1.343,1.104l1.47,0.001
		c0-0.627-0.647-2.403-2.801-2.403c-2.156,0-2.654,1.52-2.686,2.229c-0.118,2.618,4.222,2.154,4.146,3.858
		c-0.015,0.316-0.318,1.074-1.571,1.074c-1.225,0-1.612-1.01-1.643-1.415h-1.448c0.078,0.79,0.648,2.737,3.111,2.737
		c2.452,0,2.93-1.738,2.959-2.386C68.157,57.394,63.831,57.562,63.887,56.314"/>
	<path class="fill-gold" d="M20.609,56.314c0.014-0.331,0.287-0.985,1.267-0.985c0.98,0,1.302,0.834,1.344,1.104l1.47,0.001
		c0-0.627-0.647-2.403-2.803-2.403s-2.653,1.52-2.685,2.229c-0.117,2.618,4.222,2.154,4.146,3.858
		c-0.014,0.316-0.317,1.074-1.57,1.074c-1.225,0-1.612-1.01-1.643-1.415h-1.449c0.079,0.79,0.648,2.737,3.112,2.737
		c2.452,0,2.929-1.738,2.959-2.386C24.879,57.394,20.554,57.562,20.609,56.314"/>
	<polygon class="fill-brand" points="190.16,56.901 188.527,62.304 187.723,62.304 184.959,54.327 186.49,54.327 188.131,59.6 
		189.746,54.327 190.625,54.327 192.225,59.6 193.871,54.327 195.389,54.327 192.609,62.304 191.805,62.304 	"/>
	<path class="fill-brand" d="M195.598,58.323c0-0.566,0.096-1.094,0.287-1.585c0.191-0.49,0.473-0.932,0.846-1.323
		c0.4-0.431,0.854-0.763,1.354-0.994c0.504-0.23,1.023-0.348,1.566-0.348c0.58,0,1.117,0.106,1.613,0.312
		c0.498,0.208,0.945,0.514,1.348,0.922c0.389,0.4,0.689,0.853,0.9,1.354s0.316,1.022,0.316,1.56c0,0.547-0.098,1.078-0.295,1.596
		c-0.195,0.517-0.469,0.969-0.82,1.355c-0.41,0.444-0.863,0.782-1.369,1.012s-1.041,0.344-1.611,0.344
		c-0.586,0-1.125-0.105-1.619-0.315c-0.492-0.21-0.934-0.521-1.326-0.932c-0.371-0.391-0.662-0.846-0.875-1.366
		C195.703,59.396,195.598,58.865,195.598,58.323 M197.084,58.309c0,0.797,0.252,1.463,0.76,1.994
		c0.504,0.532,1.133,0.799,1.889,0.799c0.738,0,1.357-0.269,1.857-0.803c0.504-0.533,0.752-1.202,0.752-2.006
		c0-0.806-0.248-1.474-0.752-2c-0.5-0.525-1.123-0.791-1.873-0.791c-0.746,0-1.369,0.268-1.873,0.802
		C197.336,56.837,197.084,57.506,197.084,58.309"/>
	<polygon class="fill-brand" points="210.377,62.304 210.377,51.746 211.799,51.746 211.799,58.025 214.641,54.327 216.318,54.327 
		213.387,58.114 216.854,62.304 215.012,62.304 211.799,58.251 211.799,62.304 	"/>
	<path class="fill-brand" d="M224.344,51.746h1.42v7.948h-1.42V51.746z M224.344,60.615h1.42v1.688h-1.42V60.615z"/>
	<path class="fill-brand" d="M218.715,56.314c0.014-0.331,0.287-0.985,1.266-0.985c0.98,0,1.303,0.834,1.346,1.104l1.469,0.001
		c0-0.627-0.648-2.403-2.803-2.403c-2.156,0-2.654,1.52-2.686,2.229c-0.117,2.618,4.223,2.154,4.145,3.858
		c-0.014,0.316-0.316,1.074-1.568,1.074c-1.225,0-1.611-1.01-1.643-1.415h-1.449c0.08,0.79,0.648,2.737,3.109,2.737
		c2.455,0,2.932-1.738,2.961-2.386C222.984,57.394,218.658,57.562,218.715,56.314"/>
	<path d="M46.351,26.59c-3.187,0-4.299,1.609-4.919,2.32h-0.037v-1.856H38.4v17.139h3.218v-9.354c0-1.267,0-5.144,4.238-5.144
		c0.354,0,0.71,0.072,1.058,0.205l1.157-3.006C47.498,26.703,46.914,26.59,46.351,26.59"/>
	<path class="fill-gold" d="M34.982,54.204c-0.217-0.059-0.428-0.096-0.624-0.096c-1.371,0-1.983,0.648-2.278,0.997
		c-0.023,0.028-0.056,0.055-0.077,0.078v-0.858h-1.337v7.961h1.441v-4.347c0-0.604,0-2.443,2.018-2.443
		c0.136,0,0.275,0.026,0.416,0.07L34.982,54.204z"/>
	<path class="fill-brand" d="M209.369,54.204c-0.217-0.059-0.426-0.096-0.625-0.096c-1.369,0-1.982,0.648-2.275,0.997
		c-0.023,0.028-0.059,0.055-0.078,0.078v-0.858h-1.336v7.961h1.441v-4.347c0-0.604,0-2.443,2.018-2.443
		c0.137,0,0.275,0.026,0.414,0.07L209.369,54.204z"/>
</g>
</svg>
